<svg xmlns="http://www.w3.org/2000/svg" xmlns:xlink="http://www.w3.org/1999/xlink" version="1.1" x="0px" y="0px" viewBox="0 0 100 125" enable-background="new 0 0 100 100" xml:space="preserve"><g><g><path d="M18,67c-5.523,0-10,4.477-10,10s4.477,10,10,10s10-4.477,10-10S23.523,67,18,67z M18,85c-4.411,0-8-3.589-8-8s3.589-8,8-8    s8,3.589,8,8S22.411,85,18,85z"/><path d="M81,67c-5.523,0-10,4.477-10,10s4.477,10,10,10s10-4.477,10-10S86.523,67,81,67z M81,85c-4.411,0-8-3.589-8-8s3.589-8,8-8    s8,3.589,8,8S85.411,85,81,85z"/><path d="M74.293,49.293c-0.391,0.391-0.391,1.023,0,1.414L75.586,52H70c-0.553,0-1,0.448-1,1s0.447,1,1,1h10.414l-4.707-4.707    C75.316,48.902,74.684,48.902,74.293,49.293z"/><path d="M84,48.417c-10.226-8.788-16.53-14.945-33.347-16.183c-0.059-0.412-0.122-0.815-0.19-1.185l-0.927-5.097    C49.241,24.328,47.65,23,46,23h-4c-1.65,0-3.241,1.328-3.537,2.952l-0.927,5.097c-0.062,0.343-0.122,0.715-0.177,1.095    C23.137,32.965,2,38.512,2,76c0,2.861,1.98,4.5,4.661,4.9C6.24,79.676,6,78.367,6,77c0-6.627,5.373-12,12-12s12,5.373,12,12    c0,1.405-0.254,2.747-0.698,4H50h19.698C69.254,79.747,69,78.405,69,77c0-6.627,5.373-12,12-12s12,5.373,12,12    c0,1.326-0.224,2.598-0.621,3.791C94.738,80.426,98,79.417,98,76.615c0-0.082,0-0.145,0-0.216C98,62.312,98,60.448,84,48.417z     M39.504,31.406l0.927-5.097C40.553,25.636,41.316,25,42,25h4c0.684,0,1.447,0.636,1.569,1.309l0.927,5.097    c0.04,0.221,0.078,0.463,0.115,0.704C47.149,32.04,45.621,32,44,32c-1.368,0-2.921,0.001-4.602,0.053    C39.433,31.833,39.468,31.609,39.504,31.406z M20.907,38.229L18.994,42H18h-2.525C17.188,40.468,19.017,39.23,20.907,38.229z     M13.466,44H18l-2,4h-5.557C11.378,46.515,12.391,45.187,13.466,44z M96,76.615c0,0.564-0.439,0.997-1.032,1.325    C94.989,77.628,95,77.314,95,77c0-7.72-6.28-14-14-14s-14,6.28-14,14c0,0.669,0.049,1.336,0.147,2H50H31.853    C31.951,78.336,32,77.669,32,77c0-7.72-6.28-14-14-14c-7.5,0-13.641,5.927-13.985,13.343C4.005,76.232,4,76.118,4,76    c0-11.557,2.048-19.928,5.284-26H16h1.236l0.553-1.106l2-4L21.236,42l2.064-4.072c0.167-0.288,0.251-0.614,0.275-0.946    C30.847,34.003,38.626,34,44,34c20.237,0,26.595,5.489,37.128,14.582l1.568,1.352C89.202,55.524,92.804,59,94.439,62.486    C96,65.814,96,69.573,96,76.399V76.615z"/><path d="M51,39H38c-3.585,0-10,6.822-10,13.535C28,62.365,35.589,74,42,74h17c2.967,0,6-1.188,6-10C65,52.595,62.571,39,51,39z     M63,64c0,8-2.504,8-4,8H42c-4.74,0-11.68-9.803-11.985-18.851l32.175,0.74C62.79,57.155,63,60.678,63,64z M30.114,51.151    C30.901,45.766,35.992,41,38,41h13c6.121,0,9.255,4.766,10.759,10.879L30.114,51.151z"/><path d="M34.575,58.135l24.124,0.768c0.012,0,0.022,0,0.033,0c0.537,0,0.981-0.427,0.998-0.968    c0.018-0.552-0.415-1.014-0.967-1.031L34.64,56.136c-0.6-0.022-1.014,0.416-1.031,0.968    C33.591,57.656,34.023,58.118,34.575,58.135z"/></g></g><text x="0" y="115" fill="#000000" font-size="5px" font-weight="bold" font-family="'Helvetica Neue', Helvetica, Arial-Unicode, Arial, Sans-serif">Created by Guillaume Berry</text><text x="0" y="120" fill="#000000" font-size="5px" font-weight="bold" font-family="'Helvetica Neue', Helvetica, Arial-Unicode, Arial, Sans-serif">from the Noun Project</text></svg>