<svg xmlns="http://www.w3.org/2000/svg" xmlns:xlink="http://www.w3.org/1999/xlink" version="1.1" x="0px" y="0px" viewBox="0 0 100 125" enable-background="new 0 0 100 100" xml:space="preserve"><g><g><path d="M19.847,38.149c0.044-0.079,0.053-0.113,0.053-0.149c0-0.11-0.09-0.2-0.2-0.2h-1.996c-2.138,1.379-4.176,3.087-6.033,5.2    h5.716L19.847,38.149z"/><path d="M16.382,45H10.06c-0.469,0.635-0.922,1.301-1.36,2h6.682L16.382,45z"/><path d="M18,68c-4.971,0-9,4.029-9,9c0,4.971,4.029,9,9,9s9-4.029,9-9C27,72.029,22.971,68,18,68z M18,81c-2.209,0-4-1.791-4-4    c0-2.209,1.791-4,4-4s4,1.791,4,4C22,79.209,20.209,81,18,81z"/><path d="M84,48.417C72.524,38.555,66,32,44,32c-5.828,0-14.98,0.001-23.255,4.076c0.684,0.373,1.155,1.091,1.155,1.924    c0,0.388-0.103,0.77-0.296,1.104L16.618,49H7.544C4.153,55.341,2,64.043,2,76c0,2.861,1.98,4.5,4.661,4.9    C6.24,79.676,6,78.367,6,77c0-6.627,5.373-12,12-12s12,5.373,12,12c0,1.405-0.254,2.747-0.698,4H50h19.698    C69.254,79.747,69,78.405,69,77c0-6.627,5.373-12,12-12s12,5.373,12,12c0,1.326-0.224,2.598-0.621,3.791    C94.738,80.426,98,79.417,98,76.615c0-0.082,0-0.145,0-0.216C98,62.312,98,60.448,84,48.417z M59,77c-2.625,0-8.375,0-17,0    c-7.875,0-16-12.687-16-23.466C26,46,33.031,38,38,38c4.622,0,11.305,0,13,0c11.868,0,16,12,16,27C67,71.562,65.438,77,59,77z     M72,56v-2h5.586l-1.293-1.293l1.414-1.414L82.414,56H72z"/><path d="M28,53.535C28,63.365,35.589,75,42,75h17c2.967,0,6-1.188,6-10c0-3.638-0.249-7.497-0.961-11.068l-36.014-0.828    C28.019,53.247,28,53.391,28,53.535z M33.402,57.1l26.257,0.831c0.553,0.018,0.985,0.479,0.968,1.031    c-0.017,0.541-0.461,0.968-0.998,0.968c-0.011,0-0.021,0-0.032,0L33.34,59.099c-0.553-0.018-0.985-0.479-0.968-1.031    C32.389,57.516,32.874,57.074,33.402,57.1z"/><path d="M81,68c-4.971,0-9,4.029-9,9c0,4.971,4.029,9,9,9s9-4.029,9-9C90,72.029,85.971,68,81,68z M81,81c-2.209,0-4-1.791-4-4    c0-2.209,1.791-4,4-4s4,1.791,4,4C85,79.209,83.209,81,81,81z"/><path d="M50.309,30.201l-0.773-4.249C49.241,24.328,47.65,23,46,23h-4c-1.65,0-3.241,1.328-3.537,2.952l-0.759,4.174    C40.076,30.001,42.223,30,44,30C46.256,30,48.347,30.07,50.309,30.201z"/></g></g><text x="0" y="115" fill="#000000" font-size="5px" font-weight="bold" font-family="'Helvetica Neue', Helvetica, Arial-Unicode, Arial, Sans-serif">Created by Guillaume Berry</text><text x="0" y="120" fill="#000000" font-size="5px" font-weight="bold" font-family="'Helvetica Neue', Helvetica, Arial-Unicode, Arial, Sans-serif">from the Noun Project</text></svg>